<?xml version="1.0" encoding="UTF-8"?>
<svg xmlns="http://www.w3.org/2000/svg" version="1.1" width="341" height="341" style="background: transparent;">
<path d="M0 0 C112.53 0 225.06 0 341 0 C341 112.53 341 225.06 341 341 C228.47 341 115.94 341 0 341 C0 228.47 0 115.94 0 0 Z " fill="#FDFDFD" transform="translate(0,0)"/>
<path d="M0 0 C112.53 0 225.06 0 341 0 C341 112.53 341 225.06 341 341 C228.47 341 115.94 341 0 341 C0 228.47 0 115.94 0 0 Z M66 64 C64.72189453 65.18335937 64.72189453 65.18335937 63.41796875 66.390625 C36.62859902 91.87216724 21.6264275 130.11311231 20.5234375 166.66845703 C20.41555263 179.70229761 22.36313823 192.26553688 25 205 C25.20834473 206.06589355 25.20834473 206.06589355 25.42089844 207.15332031 C30.17063328 230.87782285 43.6794041 253.41750235 60 271 C60.53109375 271.57492187 61.0621875 272.14984375 61.609375 272.7421875 C88.58780961 301.61163388 126.22857164 319.08680581 165.84008789 320.47216797 C179.05827052 320.61729682 192.0496571 318.46481483 205 316 C205.74475586 315.86110352 206.48951172 315.72220703 207.25683594 315.57910156 C230.90157844 310.9352316 253.50341422 297.24084996 271 281 C271.57492187 280.46890625 272.14984375 279.9378125 272.7421875 279.390625 C300.89491351 253.08196401 317.462149 217.47274121 320 179 C320.0505957 178.25057129 320.10119141 177.50114258 320.15332031 176.72900391 C322.27609306 139.24450233 308.8698708 101.26749214 283.89331055 73.27294922 C281.63742309 70.8071658 279.32092749 68.40477602 277 66 C276.21109375 65.14792969 275.4221875 64.29585937 274.609375 63.41796875 C247.94844142 35.388676 209.22266178 21.81595877 171.19604492 20.59301758 C131.17187737 20.117942 94.48821503 36.50509791 66 64 Z " fill="#FEFEFE" transform="translate(0,0)"/>
<path d="M0 0 C0.59941406 0.31340332 1.19882813 0.62680664 1.81640625 0.94970703 C14.49130771 7.68068197 25.58705564 16.14197744 36 26 C36.88429688 26.81984375 37.76859375 27.6396875 38.6796875 28.484375 C65.57076712 54.23277419 81.42351208 91.99838828 82.42602539 129.05322266 C82.59943649 167.91944574 69.57293999 205.37245125 43 234 C42.46890625 234.57492187 41.9378125 235.14984375 41.390625 235.7421875 C13.49220932 265.5960996 -23.68147562 281.20215733 -64.23046875 283.32421875 C-81.92404729 283.8877833 -100.39397368 281.25058294 -117 275 C-118.40765625 274.48179687 -118.40765625 274.48179687 -119.84375 273.953125 C-139.75193423 266.13969785 -156.68216581 254.78373956 -172 240 C-173.27810547 238.81664062 -173.27810547 238.81664062 -174.58203125 237.609375 C-202.00295168 211.52711368 -216.11188304 173.1385937 -217.45556641 135.83007812 C-218.09470714 95.12172966 -201.97333229 57.98392955 -174 29 C-173.21109375 28.14792969 -172.4221875 27.29585937 -171.609375 26.41796875 C-128.43370358 -18.97367256 -54.77602937 -28.645024 0 0 Z M-162 37 C-162.79921875 37.72316406 -163.5984375 38.44632813 -164.421875 39.19140625 C-182.8473803 56.53133242 -194.63203323 80.48542067 -200 105 C-200.27058228 106.06299316 -200.27058228 106.06299316 -200.54663086 107.14746094 C-202.44794677 115.22784145 -202.44290347 123.3709219 -202.4375 131.625 C-202.4375705 132.39700745 -202.43764099 133.16901489 -202.43771362 133.9644165 C-202.36053286 156.02786204 -197.85576523 175.207789 -188 195 C-187.66597168 195.67240723 -187.33194336 196.34481445 -186.98779297 197.03759766 C-170.93860071 228.58931421 -141.3419153 252.08931897 -108 263 C-107.21254395 263.25974609 -106.42508789 263.51949219 -105.61376953 263.78710938 C-72.96052015 274.02868487 -36.18229293 269.02962924 -6 254 C-5.32759277 253.66597168 -4.65518555 253.33194336 -3.96240234 252.98779297 C23.01731766 239.2642064 43.12602681 216.01391953 56 189 C56.56589844 187.82308594 57.13179688 186.64617187 57.71484375 185.43359375 C65.24564586 168.28329378 67.46496854 150.49430426 67.5 131.9375 C67.50449158 131.20559448 67.50898315 130.47368896 67.51361084 129.71960449 C67.6004989 94.95071412 52.59792823 64.00552395 29 39 C28.32710937 38.26265625 27.65421875 37.5253125 26.9609375 36.765625 C6.01679028 14.64484029 -26.02478073 -0.03639648 -56.47875977 -1.12426758 C-59.94634261 -1.19273321 -63.41060803 -1.23090224 -66.87866211 -1.24023438 C-69.0334439 -1.24987007 -71.18724066 -1.28093502 -73.34179688 -1.3125 C-107.22896338 -1.57264037 -137.77044147 14.13823913 -162 37 Z " fill="#060606" transform="translate(238,37)"/>
<path d="M0 0 C3.16756997 2.8999179 3.94872577 4.61128484 4.5146637 8.90171814 C4.54135454 10.45110723 4.54615973 12.00097028 4.53344727 13.55053711 C4.54637062 14.82464699 4.54637062 14.82464699 4.55955505 16.12449646 C4.58221417 18.92575763 4.57547613 21.72601828 4.56640625 24.52734375 C4.57164208 26.47880856 4.57791841 28.43027084 4.58518982 30.38172913 C4.59559409 34.46969519 4.59103245 38.55731318 4.57641602 42.64526367 C4.55923322 47.87889838 4.58271716 53.11143472 4.61790562 58.34494686 C4.6398879 62.37450916 4.63843603 66.40380901 4.6301403 70.43341255 C4.62932114 72.36268887 4.63617779 74.29198452 4.65091133 76.22120476 C4.66837157 78.92150837 4.65380307 81.61984322 4.63110352 84.32006836 C4.64864182 85.51022552 4.64864182 85.51022552 4.66653442 86.72442627 C4.59931267 90.66333225 4.18877753 93.2978924 1.78544617 96.49397278 C-1.22696116 99.20419381 -2.24009881 99.75503022 -6.19824219 99.77636719 C-7.20989441 99.79528015 -8.22154663 99.81419312 -9.26385498 99.8336792 C-10.34725159 99.82153381 -11.43064819 99.80938843 -12.546875 99.796875 C-13.67264954 99.80261536 -14.79842407 99.80835571 -15.95831299 99.81427002 C-18.33876559 99.81834931 -20.71928537 99.80730291 -23.09960938 99.78222656 C-26.72420361 99.75022774 -30.34429803 99.78185939 -33.96875 99.8203125 C-36.28646811 99.81634525 -38.60418343 99.80865294 -40.921875 99.796875 C-42.53482452 99.81509308 -42.53482452 99.81509308 -44.18035889 99.8336792 C-51.55059221 99.69758793 -56.5213197 98.0502005 -62 93 C-67.26531883 86.17835182 -68.22242236 80.56827706 -68.3125 72.125 C-68.34150391 71.22652344 -68.37050781 70.32804687 -68.40039062 69.40234375 C-68.44133707 65.13761359 -68.37973879 62.65321661 -66.19921875 58.90234375 C-64 57 -64 57 -60.5 56.4375 C-57 57 -57 57 -54.81640625 58.40625 C-52.02719907 62.38911789 -52.44087655 66.31169906 -52.4375 71.0625 C-52.42856547 72.86599913 -52.40697101 74.66949188 -52.37109375 76.47265625 C-52.37036865 77.26937744 -52.36964355 78.06609863 -52.36889648 78.88696289 C-51.90170006 81.56306155 -51.08688549 82.30378862 -49 84 C-46.06602317 84.33131881 -43.33290519 84.48870106 -40.39453125 84.51171875 C-39.13572395 84.53864555 -39.13572395 84.53864555 -37.85148621 84.56611633 C-35.17187521 84.62028563 -32.49244298 84.65413573 -29.8125 84.6875 C-27.99541779 84.72066729 -26.1783592 84.7551564 -24.36132812 84.79101562 C-19.90768095 84.87601572 -15.45408741 84.94279502 -11 85 C-11.00888245 83.99410828 -11.01776489 82.98821655 -11.0269165 81.95184326 C-11.10797519 72.47595573 -11.1679523 63.00013847 -11.20724869 53.523983 C-11.22813056 48.65207224 -11.25645914 43.78044118 -11.30175781 38.90869141 C-11.34519419 34.20785012 -11.36913259 29.50727799 -11.37950897 24.80625153 C-11.38690432 23.01205456 -11.40134567 21.21787246 -11.42292023 19.42378998 C-11.45192537 16.91208472 -11.45595729 14.40149401 -11.45410156 11.88964844 C-11.46848267 11.14661972 -11.48286377 10.403591 -11.49768066 9.63804626 C-11.47032723 6.22029528 -11.24142096 4.32791202 -9.19036865 1.54205322 C-5.95784386 -0.73369395 -3.85054926 -0.61883827 0 0 Z " fill="#0A0A0A" transform="translate(167,121)"/>
<path d="M0 0 C2.47303465 1.77334141 4.52331389 3.86996998 6.625 6.0625 C7.18445313 6.61099609 7.74390625 7.15949219 8.3203125 7.72460938 C14.54266122 14.05702323 17.57126588 20.02260088 17.5625 28.9375 C17.43542031 37.02481385 15.65036169 42.11289938 10.1328125 47.98828125 C3.27158801 54.43569648 -2.94508921 56.52131411 -12.1875 56.4375 C-12.98091797 56.45748047 -13.77433594 56.47746094 -14.59179688 56.49804688 C-18.40597859 56.49484437 -20.37371058 56.45733692 -23.51953125 54.16015625 C-25.54482847 51.2050392 -25.58504201 49.51025207 -25 46 C-23.4296875 43.84375 -23.4296875 43.84375 -21 42 C-17.5390625 41.53125 -17.5390625 41.53125 -13.625 41.5 C-7.77584461 41.45311298 -4.54078803 40.80408201 0 37 C2.29491971 33.60111016 2.59763094 30.39845201 2.51171875 26.3671875 C1.53874077 21.86623592 -1.78990758 19.11417333 -5 16 C-10.96245509 10.12634744 -10.96245509 10.12634744 -11.125 5.25 C-10 2 -10 2 -8.3125 0 C-5.03666511 -1.41657725 -3.43176127 -0.98811764 0 0 Z " fill="#050505" transform="translate(224,164)"/>
<path d="M0 0 C2.99073609 2.04629312 3.85081442 3.25407209 4.5625 6.8125 C3.80692651 11.09408309 1.73215482 13.70189883 -1 17 C-0.1853125 17.65871094 0.629375 18.31742188 1.46875 18.99609375 C4.6013886 22.71368493 4.68711492 25.42290057 4.5 30.0625 C4.50386719 31.12307617 4.50386719 31.12307617 4.5078125 32.20507812 C4.42805481 36.45217538 4.06735777 39.01636363 1 42 C-1.77148438 42.51757812 -1.77148438 42.51757812 -5.09375 42.53125 C-6.88619141 42.53898437 -6.88619141 42.53898437 -8.71484375 42.546875 C-9.96394531 42.53140625 -11.21304688 42.5159375 -12.5 42.5 C-13.74910156 42.51546875 -14.99820313 42.5309375 -16.28515625 42.546875 C-17.48011719 42.54171875 -18.67507812 42.5365625 -19.90625 42.53125 C-21.55077148 42.52448242 -21.55077148 42.52448242 -23.22851562 42.51757812 C-26 42 -26 42 -27.88476562 40.18945312 C-29.59685489 36.82824111 -28.97148481 34.56211095 -28 31 C-25.65125515 28.60174998 -24.35323893 28.03431725 -20.984375 27.70703125 C-19.91703125 27.74183594 -18.8496875 27.77664062 -17.75 27.8125 C-16.67234375 27.83957031 -15.5946875 27.86664063 -14.484375 27.89453125 C-13.66453125 27.92933594 -12.8446875 27.96414062 -12 28 C-12.5053125 27.50371094 -13.010625 27.00742188 -13.53125 26.49609375 C-14.1809375 25.81675781 -14.830625 25.13742188 -15.5 24.4375 C-16.1496875 23.77621094 -16.799375 23.11492187 -17.46875 22.43359375 C-19.64899189 18.96856646 -19.66324152 17.0311303 -19 13 C-17.28984933 10.32118058 -15.17513478 8.2401276 -12.875 6.0625 C-12.30523437 5.47404297 -11.73546875 4.88558594 -11.1484375 4.27929688 C-7.54003787 0.74880588 -5.28222103 -0.93349596 0 0 Z " fill="#040404" transform="translate(146,148)"/>
<path d="M0 0 C3.4375 1 3.4375 1 5.4375 2.6875 C6.81444267 5.87167993 6.417724 7.70924801 5.4375 11 C4.3125 12.875 4.3125 12.875 2.4375 14 C-1.0625 14.4375 -1.0625 14.4375 -4.5625 14 C-7.18791413 11.79803976 -7.5070448 10.38026421 -8 7 C-7.5625 4 -7.5625 4 -6 1.5625 C-3.5625 0 -3.5625 0 0 0 Z " fill="#0A0A0A" transform="translate(185.5625,206)"/>
</svg>